<?xml version="1.0" encoding="UTF-8"?>
<svg width="40px" height="40px" viewBox="0 0 40 40" version="1.1" xmlns="http://www.w3.org/2000/svg" xmlns:xlink="http://www.w3.org/1999/xlink">
    <!-- Generator: Sketch 56.3 (81716) - https://sketch.com -->
    <title>Brand/_category_icon</title>
    <desc>Created with Sketch.</desc>
    <g id="Brand/_category_icon" stroke="none" stroke-width="1" fill="none" fill-rule="evenodd">
        <rect id="Rectangle-11" fill="#E9E9E9" opacity="0.00999999978" x="0" y="0" width="40" height="40"></rect>
        <path d="M32.2990118,29.2084263 C32.2990118,31.1205939 32.2990118,34.1104172 28.727451,34.1104172 C26.54276,34.1104172 25.6759301,32.9282651 25.1555992,30.9469197 C23.2483985,33.2411705 20.8898757,34.4233227 18.0465453,34.4233227 C11.0411499,34.4233227 5.70098825,28.443676 5.70098825,19.9963962 C5.70098825,11.7922602 11.2146906,5.5 18.0465453,5.5 C20.7859259,5.5 23.4909479,6.57794763 25.155308,8.94196005 C25.3634986,7.13399698 26.923909,5.81290546 28.7271599,5.81290546 C32.2990118,5.81290546 32.2990118,8.76799395 32.2990118,10.7148964 L32.2990118,29.2087182 L32.2990118,29.2084263 Z M19.0866248,27.5399864 C22.9709081,27.5399864 24.8434588,23.5770037 24.8434588,19.9966881 C24.8434588,16.4163724 23.0404991,12.3488934 19.0869159,12.3488934 C14.9947331,12.3488934 13.1568323,16.4160805 13.1568323,19.9966881 C13.1568323,23.5775875 15.029383,27.5399864 19.0866248,27.5399864 Z" id="Shape" fill="#DD3303" fill-rule="nonzero"></path>
    </g>
</svg>